Coordinates
version=1
nRows=11
nColumns=36
inDegrees=yes

Units are S.I. units (second, meters, Newtons, ...)
If the header above contains a line with 'inDegrees', this indicates whether rotational values are in degrees (yes) or radians (no).

endheader
time	pelvis_tilt	pelvis_list	pelvis_rotation	pelvis_tx	pelvis_ty	pelvis_tz	hip_flexion_r	hip_adduction_r	hip_rotation_r	knee_angle_r	knee_angle_r_beta	ankle_angle_r	subtalar_angle_r	mtp_angle_r	hip_flexion_l	hip_adduction_l	hip_rotation_l	knee_angle_l	knee_angle_l_beta	ankle_angle_l	subtalar_angle_l	mtp_angle_l	lumbar_extension	lumbar_bending	lumbar_rotation	arm_flex_r	arm_add_r	arm_rot_r	elbow_flex_r	pro_sup_r	arm_flex_l	arm_add_l	arm_rot_l	elbow_flex_l	pro_sup_l
      5.91666670	    -20.09788468	      1.13434959	      4.16380063	      0.74412044	      0.95474581	     -0.15084840	     27.77699432	      5.95748558	     -5.45731901	     18.31396789	      0.31963904	      4.68773813	     -6.39924759	     -7.49999987	     45.99504559	      1.41151994	      3.41141489	     18.78743749	      0.32790264	     -2.74923126	      0.63826962	     -7.49999987	    -10.67919128	     -8.20607084	      3.94886962	     58.51720189	    -16.31708684	     47.97259612	    140.14935479	     78.51944357	     68.32569561	     -8.34407811	     64.73193999	    133.80708769	     87.11503460
      5.93333330	    -20.03802231	      1.37069530	      4.11093759	      0.74464325	      0.95507762	     -0.15043297	     27.16824696	      5.75361619	     -5.59330354	     17.24002007	      0.30089511	      4.55806809	     -6.28236882	     -7.49999987	     45.11054477	      1.32877654	      3.40456063	     18.58784723	      0.32441914	     -1.84751182	      0.38399891	     -7.49999987	    -10.09828884	     -8.22653154	      4.14374178	     58.62142115	    -16.00140158	     47.88342792	    140.90390674	     78.67719193	     67.84000916	     -8.78290697	     64.36534554	    134.70193084	     87.15437546
      5.95000000	    -19.51814056	      1.54544062	      3.93375343	      0.74327247	      0.95643621	     -0.15057476	     26.29752528	      5.70210448	     -5.78886864	     16.39795676	      0.28619834	      4.43705416	     -6.44015660	     -7.49999987	     43.82583447	      1.24161869	      3.59752706	     18.24997189	      0.31852210	     -1.40113808	     -0.27337046	     -7.49999987	     -9.76586361	     -8.19763306	      3.97278713	     58.93074817	    -14.99100070	     47.26972827	    140.55004959	     79.08535161	     67.31739727	     -8.90521272	     63.82830341	    136.29880503	     87.30442072
      5.96666670	    -19.08494044	      1.89817070	      3.65332936	      0.74909079	      0.95766214	     -0.15333944	     24.95602745	      5.51361067	     -5.59882535	     14.91334355	      0.26028695	      4.27402781	     -6.49868341	     -7.49999987	     42.28736531	      1.29382112	      3.36064789	     17.71586027	      0.30920009	     -1.18308900	     -0.93801818	     -7.49999987	     -8.79856916	     -8.28429096	      4.24730642	     58.39975789	    -14.48627787	     47.33513559	    140.55464149	     79.33695625	     66.19841364	     -8.09153505	     63.98754372	    137.58030854	     87.42329758
      5.98333330	    -18.59467407	      2.24914594	      3.02606942	      0.74766682	      0.95919106	     -0.15285434	     23.52057500	      5.47894973	     -5.18535602	     13.28609446	      0.23188609	      4.02168290	     -6.45632588	     -7.49999987	     40.44320738	      1.27596423	      3.23583308	     16.77329877	      0.29274929	     -1.26257321	     -1.61432343	     -7.49999987	     -8.04481505	     -8.40600786	      4.84058579	     57.59928583	    -14.21458638	     47.22391867	    139.23338053	     79.55150066	     64.99231403	     -7.17797216	     63.57311711	    137.56423449	     87.49802841
      6.00000000	    -17.91958154	      2.50238454	      2.61153076	      0.74789343	      0.96352700	     -0.15160193	     21.66458342	      5.49436075	     -4.69654276	     11.22430257	      0.19590104	      3.49781179	     -6.52243552	     -7.49999987	     38.25805418	      1.34984948	      3.64122528	     15.10573228	      0.26364476	     -1.69925453	     -2.49292540	     -7.49999987	     -8.03939941	     -8.37087962	      5.14469190	     57.25370062	    -13.64161749	     45.91111597	    137.48574780	     85.94271646	     63.53624888	     -7.52206860	     61.94823907	    136.94966284	     90.17052068
      6.01666670	    -17.50331902	      2.63603850	      2.24125739	      0.74708160	      0.96763047	     -0.15159549	     20.16942739	      5.57348101	     -4.09444059	      9.19343504	      0.16045571	      2.76166300	     -6.41413560	     -7.49999987	     36.37004134	      1.39747131	      3.91447575	     13.44778676	      0.23470816	     -1.85408584	     -2.68698637	     -7.49999987	     -7.99829044	     -8.29080139	      5.67855438	     57.00305688	    -13.63073922	     45.75355366	    136.84960847	     85.90432501	     62.44174066	     -7.93456047	     60.48340717	    136.45030744	     89.99488059
      6.03333330	    -17.29162379	      2.68687548	      2.03717710	      0.74764674	      0.96819517	     -0.15087547	     19.37229770	      5.64432870	     -3.67853841	      8.05673564	      0.14061656	      2.15937243	     -6.59661402	     -7.49999987	     35.25430825	      1.40535905	      4.30058581	     12.78330297	      0.22311073	     -1.73140405	     -2.92671773	     -7.49999987	     -7.84235283	     -8.13542402	      5.85829950	     56.26190021	    -13.22568440	     45.87732235	    136.10398754	     84.66976684	     61.18730163	     -8.22540948	     60.08760635	    136.73627993	     88.64820328
      6.05000000	    -17.16811129	      2.68856808	      1.69963950	      0.74709890	      0.96819166	     -0.15094913	     18.85884827	      5.74925630	     -3.46620788	      7.19716608	      0.12561424	      1.62810544	     -6.70622789	     -7.49999987	     34.25272737	      1.31254351	      4.93251055	     12.13862408	      0.21185896	     -1.41743942	     -3.11702843	     -7.49999987	     -7.49714751	     -8.02970243	      6.08027847	     55.59961659	    -12.44212318	     45.10866601	    135.26072488	     84.71368010	     60.28036131	     -8.68212638	     58.49413112	    135.46020144	     88.60130358
      6.06666670	    -16.71592997	      2.73875337	      1.44259735	      0.75371490	      0.97178311	     -0.15338293	     17.74423663	      5.78034083	     -3.00755745	      6.18311195	      0.10791566	      1.38168933	     -6.78805919	     -7.49999987	     32.85224539	      1.33611075	      5.58751660	     11.36582280	      0.19837103	     -0.99406402	     -3.36239273	     -7.49999987	     -7.05696911	     -7.85527745	      6.31482955	     54.68059965	    -11.80751067	     45.15739080	    135.07721906	     84.87636944	     58.95478247	     -8.63955775	     58.05483356	    135.57473504	     88.67441328
      6.08333330	    -16.22096989	      2.76274218	      1.16631030	      0.75254757	      0.96927868	     -0.15372598	     16.85815944	      5.83330456	     -2.49759403	      5.55190655	      0.09689905	      1.09549849	     -7.21646296	     -7.49999987	     31.70527553	      1.38073179	      6.41256900	     10.94578054	      0.19103991	     -0.36996579	     -3.83695872	     -7.49999987	     -6.85811651	     -7.43625361	      6.03554918	     54.42120015	    -10.73402042	     44.84711881	    134.01625392	     87.29089485	     57.45971895	     -8.71052741	     57.07992216	    136.13468539	     90.68503939
